<svg width="1440" height="400" viewBox="0 0 1440 400" fill="none" xmlns="http://www.w3.org/2000/svg">
<rect width="1440" height="400" fill="#1CE783"/>
<path d="M528.676 239.232H560.452V252H512.164V188.64H528.676V239.232ZM591.624 252.96C586.312 252.96 581.704 251.968 577.8 249.984C573.96 248 570.984 245.152 568.872 241.44C566.76 237.728 565.704 233.248 565.704 228C565.704 222.752 566.76 218.272 568.872 214.56C570.984 210.848 573.928 208 577.704 206.016C581.544 204.032 585.928 203.04 590.856 203.04C595.912 203.04 600.2 204.032 603.72 206.016C607.304 207.936 610.024 210.624 611.88 214.08C613.736 217.472 614.664 221.376 614.664 225.792C614.664 226.944 614.632 228.096 614.568 229.248C614.504 230.4 614.408 231.36 614.28 232.128H576.264V223.392H607.08L599.304 226.368C599.304 222.528 598.6 219.584 597.192 217.536C595.848 215.488 593.736 214.464 590.856 214.464C588.808 214.464 587.048 214.944 585.576 215.904C584.168 216.864 583.08 218.368 582.312 220.416C581.608 222.464 581.256 225.088 581.256 228.288C581.256 231.424 581.672 233.984 582.504 235.968C583.336 237.888 584.52 239.296 586.056 240.192C587.592 241.024 589.448 241.44 591.624 241.44C594.056 241.44 595.976 240.96 597.384 240C598.856 239.04 599.944 237.696 600.648 235.968L613.704 240.288C612.808 243.04 611.24 245.376 609 247.296C606.824 249.152 604.2 250.56 601.128 251.52C598.12 252.48 594.952 252.96 591.624 252.96ZM631.954 198.432C628.626 198.432 626.194 197.824 624.658 196.608C623.186 195.328 622.45 193.344 622.45 190.656C622.45 187.904 623.186 185.92 624.658 184.704C626.194 183.424 628.626 182.784 631.954 182.784C635.218 182.784 637.618 183.424 639.154 184.704C640.69 185.92 641.458 187.904 641.458 190.656C641.458 193.344 640.69 195.328 639.154 196.608C637.618 197.824 635.218 198.432 631.954 198.432ZM640.114 204V252H623.794V204H640.114ZM667.859 183.648V235.68C667.859 237.792 668.211 239.296 668.915 240.192C669.619 241.088 670.803 241.536 672.467 241.536C673.427 241.536 674.227 241.472 674.867 241.344C675.507 241.216 676.275 241.024 677.171 240.768L676.115 250.56C674.963 251.264 673.459 251.84 671.603 252.288C669.747 252.736 667.923 252.96 666.131 252.96C661.011 252.96 657.299 251.776 654.995 249.408C652.691 247.04 651.539 243.168 651.539 237.792V183.648H667.859ZM705.985 203.04C711.041 203.04 715.457 204.032 719.233 206.016C723.073 207.936 726.049 210.784 728.161 214.56C730.337 218.272 731.425 222.752 731.425 228C731.425 233.248 730.337 237.76 728.161 241.536C726.049 245.248 723.073 248.096 719.233 250.08C715.457 252 711.041 252.96 705.985 252.96C701.057 252.96 696.673 252 692.833 250.08C688.993 248.096 685.985 245.248 683.809 241.536C681.697 237.76 680.641 233.248 680.641 228C680.641 222.752 681.697 218.272 683.809 214.56C685.985 210.784 688.993 207.936 692.833 206.016C696.673 204.032 701.057 203.04 705.985 203.04ZM705.985 214.656C704.129 214.656 702.529 215.104 701.185 216C699.841 216.896 698.817 218.336 698.113 220.32C697.409 222.304 697.057 224.864 697.057 228C697.057 231.136 697.409 233.696 698.113 235.68C698.817 237.6 699.841 239.04 701.185 240C702.529 240.896 704.129 241.344 705.985 241.344C707.905 241.344 709.537 240.896 710.881 240C712.225 239.04 713.249 237.6 713.953 235.68C714.657 233.696 715.009 231.136 715.009 228C715.009 224.864 714.657 222.304 713.953 220.32C713.249 218.336 712.225 216.896 710.881 216C709.537 215.104 707.905 214.656 705.985 214.656ZM766.921 221.568C766.921 219.328 766.281 217.568 765.001 216.288C763.785 214.944 762.121 214.272 760.009 214.272C757.897 214.272 756.073 214.816 754.537 215.904C753.065 216.928 752.041 218.784 751.465 221.472L737.641 218.208C738.537 213.6 740.905 209.92 744.745 207.168C748.585 204.416 753.993 203.04 760.969 203.04C765.641 203.04 769.609 203.744 772.873 205.152C776.201 206.496 778.729 208.544 780.457 211.296C782.249 213.984 783.145 217.312 783.145 221.28V238.848C783.145 241.344 784.265 242.592 786.505 242.592C787.657 242.592 788.585 242.464 789.289 242.208L788.329 251.52C786.409 252.416 784.073 252.864 781.321 252.864C778.825 252.864 776.617 252.48 774.697 251.712C772.777 250.88 771.273 249.664 770.185 248.064C769.097 246.4 768.553 244.32 768.553 241.824V241.248L770.377 240.576C770.377 243.328 769.545 245.632 767.881 247.488C766.281 249.344 764.169 250.72 761.545 251.616C758.985 252.512 756.297 252.96 753.481 252.96C750.217 252.96 747.369 252.448 744.937 251.424C742.505 250.4 740.617 248.928 739.273 247.008C737.993 245.024 737.353 242.592 737.353 239.712C737.353 236.256 738.377 233.408 740.425 231.168C742.537 228.864 745.833 227.264 750.313 226.368L768.457 222.624L768.361 231.264L759.145 233.184C757.225 233.568 755.785 234.144 754.825 234.912C753.929 235.616 753.481 236.704 753.481 238.176C753.481 239.584 753.993 240.64 755.017 241.344C756.041 242.048 757.257 242.4 758.665 242.4C759.753 242.4 760.777 242.24 761.737 241.92C762.761 241.6 763.657 241.12 764.425 240.48C765.193 239.776 765.801 238.912 766.249 237.888C766.697 236.864 766.921 235.648 766.921 234.24V221.568ZM795.731 252V204H810.323L810.803 213.312C812.339 209.92 814.483 207.36 817.235 205.632C820.051 203.904 823.283 203.04 826.931 203.04C830.515 203.04 833.619 203.84 836.243 205.44C838.867 207.04 840.819 209.408 842.099 212.544C843.123 210.432 844.435 208.672 846.035 207.264C847.699 205.856 849.587 204.8 851.699 204.096C853.811 203.392 855.987 203.04 858.227 203.04C861.427 203.04 864.243 203.68 866.675 204.96C869.107 206.176 871.027 208.064 872.435 210.624C873.907 213.12 874.643 216.256 874.643 220.032V252H858.323V223.776C858.323 220.704 857.715 218.56 856.499 217.344C855.347 216.128 853.779 215.52 851.795 215.52C850.195 215.52 848.723 215.936 847.379 216.768C846.099 217.536 845.107 218.72 844.403 220.32C843.699 221.92 843.347 223.936 843.347 226.368V252H827.027V223.776C827.027 220.704 826.419 218.56 825.203 217.344C823.987 216.128 822.419 215.52 820.499 215.52C819.027 215.52 817.619 215.904 816.275 216.672C814.995 217.44 813.971 218.656 813.203 220.32C812.435 221.92 812.051 224.032 812.051 226.656V252H795.731ZM909.53 252.96C904.218 252.96 899.61 251.968 895.706 249.984C891.866 248 888.89 245.152 886.778 241.44C884.666 237.728 883.61 233.248 883.61 228C883.61 222.752 884.666 218.272 886.778 214.56C888.89 210.848 891.834 208 895.61 206.016C899.45 204.032 903.834 203.04 908.762 203.04C913.818 203.04 918.106 204.032 921.626 206.016C925.21 207.936 927.93 210.624 929.786 214.08C931.642 217.472 932.57 221.376 932.57 225.792C932.57 226.944 932.538 228.096 932.474 229.248C932.41 230.4 932.314 231.36 932.186 232.128H894.17V223.392H924.986L917.21 226.368C917.21 222.528 916.506 219.584 915.098 217.536C913.754 215.488 911.642 214.464 908.762 214.464C906.714 214.464 904.954 214.944 903.482 215.904C902.074 216.864 900.986 218.368 900.218 220.416C899.514 222.464 899.162 225.088 899.162 228.288C899.162 231.424 899.578 233.984 900.41 235.968C901.242 237.888 902.426 239.296 903.962 240.192C905.498 241.024 907.354 241.44 909.53 241.44C911.962 241.44 913.882 240.96 915.29 240C916.762 239.04 917.85 237.696 918.554 235.968L931.61 240.288C930.714 243.04 929.146 245.376 926.906 247.296C924.73 249.152 922.106 250.56 919.034 251.52C916.026 252.48 912.858 252.96 909.53 252.96Z" fill="white"/>
</svg>
